<svg version="1.1" id="Layer_1" xmlns="http://www.w3.org/2000/svg" xmlns:xlink="http://www.w3.org/1999/xlink" x="0px" y="0px"
	 width="215.465px" height="232.841px" viewBox="0 0 215.465 232.841" enable-background="new 0 0 215.465 232.841"
	 xml:space="preserve">
<path fill-rule="evenodd" clip-rule="evenodd" id="thimble-main" fill="black" d="M203.829,200.615c-2.836,0-4.651,0-6.466,0
	c-59.986,0.002-119.973,0.006-179.959,0.004c-6.41,0-6.553-0.177-5.74-6.443c7.535-58.104,15.074-116.205,22.596-174.31
	C35.752,8.326,45.296,0.168,58.095,0.095c25.494-0.145,50.989-0.062,76.483-0.066c7.498-0.002,14.998-0.087,22.494,0.046
	c13.109,0.231,22.197,7.799,23.965,20.674c4.053,29.518,7.768,59.082,11.617,88.627c3.506,26.904,7.029,53.807,10.481,80.718
	C203.55,193.33,203.576,196.618,203.829,200.615z M116.429,145.432c0.012-5.021-3.783-8.851-8.783-8.865
	c-4.868-0.014-8.897,3.979-8.931,8.852c-0.033,4.859,4.003,8.858,8.915,8.832C112.764,154.223,116.418,150.561,116.429,145.432z
	 M116.388,47.408c-0.074-5.097-3.836-8.841-8.844-8.801c-4.869,0.038-8.829,4.061-8.808,8.945c0.021,4.957,3.886,8.704,8.955,8.681
	C112.817,56.21,116.464,52.51,116.388,47.408z M93.746,62.458c-4.957,0.009-9.011,3.966-8.988,8.773
	c0.023,4.793,4.156,8.881,8.967,8.866c5.01-0.014,8.804-3.813,8.824-8.837C102.568,66.228,98.791,62.45,93.746,62.458z
	 M51.868,104.249c4.889,0.088,9.068-3.838,9.151-8.597c0.084-4.791-3.931-8.96-8.742-9.078c-4.989-0.123-8.86,3.613-8.964,8.652
	C43.208,100.306,46.861,104.159,51.868,104.249z M94.036,32.131c4.895-0.119,8.636-4.147,8.501-9.155
	c-0.136-5.061-4.004-8.675-9.097-8.499c-4.945,0.17-8.944,4.357-8.688,9.098C85.014,28.456,89.131,32.251,94.036,32.131z
	 M121.338,32.151c4.944,0.106,8.869-3.685,8.988-8.683c0.122-5.09-3.494-8.865-8.597-8.976c-4.985-0.108-8.977,3.672-9.073,8.593
	C112.562,27.979,116.457,32.047,121.338,32.151z M61.007,47.563c-0.036-4.865-4.033-8.917-8.847-8.97
	c-5-0.055-8.802,3.726-8.832,8.779c-0.03,5.148,3.613,8.886,8.658,8.885C56.977,56.257,61.042,52.338,61.007,47.563z M130.33,71.038
	c-0.074-5.067-3.813-8.634-8.986-8.572c-4.929,0.06-8.835,4.096-8.69,8.979c0.146,4.905,4.226,8.799,9.085,8.669
	C126.692,79.982,130.404,76.062,130.33,71.038z M38.022,112.433c-5.005,0.045-8.7,3.894-8.62,8.98
	c0.079,5.026,3.925,8.755,8.952,8.679c4.817-0.072,8.858-4.242,8.749-9.027C46.991,116.166,43.017,112.389,38.022,112.433z
	 M80.039,136.575c-4.862-0.062-8.995,3.85-9.15,8.659c-0.154,4.81,3.822,8.914,8.739,9.021c5.042,0.108,8.899-3.592,9.005-8.639
	C88.739,140.583,84.989,136.639,80.039,136.575z M130.337,121.497c0.114-5.104-3.455-8.875-8.56-9.039
	c-4.946-0.16-8.952,3.602-9.114,8.559c-0.158,4.822,3.795,8.985,8.643,9.099C126.317,130.233,130.226,126.504,130.337,121.497z
	 M93.564,130.104c4.905,0.13,8.889-3.729,8.959-8.68c0.072-5.105-3.579-8.914-8.604-8.975c-4.972-0.06-8.958,3.703-9.136,8.624
	C84.615,125.729,88.744,129.976,93.564,130.104z M172.144,47.308c-0.068-4.843-4.166-8.806-9.025-8.729
	c-4.979,0.079-8.68,3.96-8.609,9.026c0.072,5.069,3.863,8.739,8.927,8.641C168.474,56.147,172.214,52.309,172.144,47.308z
	 M88.578,95.628c0.089-5.122-3.535-8.941-8.554-9.019c-4.901-0.074-8.978,3.77-9.155,8.636c-0.172,4.733,3.823,8.82,8.777,8.979
	C84.693,104.386,88.489,100.731,88.578,95.628z M144.246,47.278c-0.092-4.972-4.043-8.785-8.974-8.66
	c-4.942,0.126-8.766,4.097-8.683,9.017c0.084,4.925,4.022,8.683,9.037,8.623C140.623,56.198,144.337,52.327,144.246,47.278z
	 M66.154,62.438c-5.071-0.064-8.956,3.635-9.054,8.623c-0.098,4.958,3.747,8.966,8.668,9.038c4.896,0.072,9.039-3.863,9.13-8.673
	C74.992,66.496,71.105,62.501,66.154,62.438z M158.22,71.319c0.045-4.982-3.783-8.856-8.786-8.891
	c-5.077-0.035-8.84,3.655-8.897,8.727c-0.057,4.94,3.805,8.91,8.729,8.973C154.121,80.188,158.177,76.199,158.22,71.319z
	 M116.408,95.801c0.158-5.081-3.423-8.993-8.416-9.194c-4.898-0.197-9.006,3.566-9.257,8.482c-0.244,4.8,3.67,8.992,8.531,9.136
	C112.367,104.374,116.254,100.792,116.408,95.801z M163.449,86.598c-4.993-0.115-8.887,3.653-8.939,8.651
	c-0.053,5.119,3.574,8.92,8.593,9.005c4.972,0.083,8.919-3.688,9.04-8.634C172.259,90.774,168.343,86.71,163.449,86.598z
	 M65.812,130.107c4.902,0.075,8.958-3.807,9.087-8.698c0.127-4.795-3.872-8.89-8.776-8.986c-4.964-0.098-8.873,3.69-8.949,8.671
	C57.098,126.085,60.881,130.032,65.812,130.107z M186.099,121.345c0.006-4.956-3.84-8.838-8.813-8.896
	c-5.02-0.059-8.856,3.702-8.889,8.713c-0.032,5.055,3.748,8.953,8.68,8.95C181.962,130.108,186.093,126.094,186.099,121.345z
	 M61.025,145.229c-0.114-4.745-4.349-8.755-9.147-8.662c-4.956,0.096-8.67,4.01-8.579,9.039c0.091,5.047,3.909,8.709,8.967,8.601
	C57.132,154.103,61.14,149.995,61.025,145.229z M163.195,154.198c5.012,0.043,8.895-3.715,8.969-8.681
	c0.072-4.858-3.869-8.856-8.785-8.914c-5.021-0.058-8.85,3.704-8.865,8.715C154.496,150.455,158.113,154.154,163.195,154.198z
	 M88.587,47.631c0.056-5.102-3.606-8.959-8.582-9.039c-4.868-0.078-8.955,3.817-9.114,8.688c-0.156,4.772,3.839,8.857,8.766,8.962
	C84.747,56.349,88.532,52.699,88.587,47.631z M149.361,112.438c-5.055,0.017-8.857,3.796-8.844,8.79
	c0.015,4.987,3.838,8.828,8.82,8.859c4.91,0.03,8.86-3.908,8.865-8.842C158.208,116.266,154.35,112.423,149.361,112.438z
	 M149.143,32.143c4.909,0.112,8.905-3.704,9.059-8.652c0.153-4.956-3.65-8.914-8.642-8.994c-5.139-0.082-8.903,3.503-9.02,8.587
	C140.427,28.034,144.22,32.028,149.143,32.143z M66.057,32.151c4.82-0.06,8.933-4.225,8.856-8.967
	c-0.08-4.966-3.983-8.731-9.022-8.704c-5.021,0.028-8.718,3.806-8.718,8.91C57.172,28.31,61.129,32.212,66.057,32.151z
	 M144.245,145.348c-0.047-5.02-3.886-8.804-8.887-8.757c-4.956,0.046-8.771,3.93-8.772,8.933c-0.002,4.871,3.969,8.726,8.957,8.692
	C140.58,154.183,144.292,150.399,144.245,145.348z M135.593,86.609c-4.935-0.051-8.936,3.815-8.993,8.691
	c-0.06,4.974,3.704,8.824,8.709,8.911c4.981,0.086,8.896-3.694,8.954-8.65C144.324,90.551,140.556,86.661,135.593,86.609z
	 M38.051,62.445c-5.5,0.024-7.597,3.296-7.429,11.589c0.07,3.475,3.396,6.115,7.663,6.086c4.803-0.033,8.856-4.173,8.809-8.997
	C47.045,66.253,43.055,62.423,38.051,62.445z M184.672,74.345c0.166-8.433-1.812-11.727-7.14-11.896
	c-5.096-0.162-8.97,3.399-9.141,8.404c-0.171,5.051,3.426,9.02,8.372,9.236C180.992,80.274,184.608,77.647,184.672,74.345z
	 M38.579,14.609c-0.784,5.777-1.555,11.469-2.343,17.278c6.582,0.023,10.086-2.644,10.785-7.496
	C47.702,19.669,44.877,16.107,38.579,14.609z M176.672,14.423c-6.936,2.111-9.37,5.898-8.011,11.267
	c1.154,4.562,5.23,6.85,10.534,5.652C178.379,25.867,177.56,20.373,176.672,14.423z"/>
<path fill-rule="evenodd" clip-rule="evenodd" fill="#{$color}" d="M107.507,232.834c-31.822-0.001-63.646,0.023-95.469-0.018
	c-8.829-0.011-11.958-3.249-12.003-12.1c-0.016-2.999-0.098-6.004,0.059-8.995c0.294-5.608,3.885-9.233,9.527-9.57
	c3.155-0.188,6.329-0.078,9.495-0.079c60.814-0.002,121.629-0.003,182.444,0.002c10.896,0.001,13.873,3.013,13.895,13.99
	c0.004,1.832,0.025,3.666-0.006,5.498c-0.133,7.577-3.793,11.25-11.471,11.258C171.822,232.854,139.665,232.835,107.507,232.834z"/>
</svg>
